<?xml version="1.0" encoding="utf-8"?>
<!-- Generator: Adobe Illustrator 27.2.0, SVG Export Plug-In . SVG Version: 6.00 Build 0)  -->
<svg version="1.1" id="Capa_1" xmlns="http://www.w3.org/2000/svg" xmlns:xlink="http://www.w3.org/1999/xlink" x="0px" y="0px"
	 viewBox="0 0 128 128" style="enable-background:new 0 0 128 128;" xml:space="preserve">
<style type="text/css">
	.st0{fill:#FFFDFF;stroke:#000000;stroke-miterlimit:10;}
</style>
<path class="st0" d="M41.6,10.7h44.8c17.1,0,30.9,13.9,30.9,30.9v44.8c0,17.1-13.8,30.9-30.9,30.9H41.6c-17.1,0-30.9-13.9-30.9-30.9
	V41.6C10.7,24.5,24.5,10.7,41.6,10.7 M40.5,21.3c-10.6,0-19.2,8.6-19.2,19.2l0,0v46.9c0,10.6,8.6,19.2,19.2,19.2h46.9
	c10.6,0,19.2-8.6,19.2-19.2c0,0,0,0,0,0V40.5c0-10.6-8.6-19.2-19.2-19.2H40.5 M92,29.3c3.7,0,6.7,3,6.7,6.7c0,3.7-3,6.7-6.7,6.7
	c-3.7,0-6.7-3-6.7-6.7C85.3,32.3,88.3,29.3,92,29.3 M64,37.3c14.7,0,26.7,11.9,26.7,26.7S78.7,90.7,64,90.7S37.3,78.7,37.3,64
	S49.3,37.3,64,37.3 M64,48c-8.8,0-16,7.2-16,16s7.2,16,16,16s16-7.2,16-16S72.8,48,64,48z"/>
</svg>
