<?xml version="1.0" encoding="utf-8"?>
<!-- Generator: Adobe Illustrator 27.2.0, SVG Export Plug-In . SVG Version: 6.00 Build 0)  -->
<svg version="1.1" id="Capa_1" xmlns="http://www.w3.org/2000/svg" xmlns:xlink="http://www.w3.org/1999/xlink" x="0px" y="0px"
	 viewBox="0 0 128 128" style="enable-background:new 0 0 128 128;" xml:space="preserve">
<style type="text/css">
	.st0{fill:#FFFFFF;}
	.st1{fill-rule:evenodd;clip-rule:evenodd;}
</style>
<g>
	<path class="st0" d="M128,0v128H0V0H128z M67.2,124L67.2,124l-0.4,0.2l-0.1,0l-0.1,0l-0.4-0.2c-0.1,0-0.1,0-0.1,0l0,0.1l-0.1,2.3
		l0,0.1l0.1,0.1l0.6,0.4l0.1,0l0.1,0l0.6-0.4l0.1-0.1l0-0.1L67.2,124C67.2,124.1,67.2,124,67.2,124L67.2,124z M68.6,123.4
		L68.6,123.4l-1.1,0.5l-0.1,0.1l0,0.1l0.1,2.3l0,0.1l0,0l1.1,0.5c0.1,0,0.1,0,0.2,0l0-0.1l-0.2-3.3
		C68.7,123.5,68.6,123.5,68.6,123.4z M64.8,123.5c0,0-0.1,0-0.1,0l0,0.1l-0.2,3.3c0,0.1,0,0.1,0.1,0.1l0.1,0l1.1-0.5l0.1,0l0-0.1
		l0.1-2.3l0-0.1l-0.1-0.1L64.8,123.5L64.8,123.5z"/>
	<path class="st1" d="M105.3,24.8c1.9-2.2,1.7-5.6-0.5-7.5c-2.2-1.9-5.6-1.7-7.5,0.5L70.1,49L46.9,18.1c-1-1.3-2.6-2.1-4.3-2.1H21.3
		c-2.9,0-5.3,2.4-5.3,5.3c0,1.2,0.4,2.3,1.1,3.2l34.3,45.8l-28.7,32.9c-1.9,2.2-1.7,5.6,0.5,7.5c2.2,1.9,5.6,1.7,7.5-0.5L57.9,79
		l23.1,30.8c1,1.3,2.6,2.1,4.3,2.1h21.3c2.9,0,5.3-2.4,5.3-5.3c0-1.2-0.4-2.3-1.1-3.2L76.6,57.7L105.3,24.8L105.3,24.8z M88,101.3
		L32,26.7h8l56,74.7H88z"/>
</g>
</svg>
