<?xml version="1.0" encoding="utf-8"?>
<!-- Generator: Adobe Illustrator 27.2.0, SVG Export Plug-In . SVG Version: 6.00 Build 0)  -->
<svg version="1.1" id="Capa_1" xmlns="http://www.w3.org/2000/svg" xmlns:xlink="http://www.w3.org/1999/xlink" x="0px" y="0px"
	 viewBox="0 0 128 128" style="enable-background:new 0 0 128 128;" xml:space="preserve">
<style type="text/css">
	.st0{fill:#FFFFFF;}
</style>
<path class="st0" d="M45.2,70.1h3.9v19.3h3.7V70.1h3.9v-3.3H45.2V70.1z M64.9,85.3c-0.6,0.7-2.8,2.2-2.8,0.1V72.7h-3.3v13.9
	c0,4.2,4.2,3.1,6.2,0.9v1.8h3.3V72.7H65L64.9,85.3L64.9,85.3z M77.2,72.6c-1.9,0-3.1,1.4-3.1,1.4v-7.3h-3.4v22.6h3.4v-1.3
	c0,0,1.1,1.5,3.1,1.5c1.8,0,3.1-1.5,3.1-3.7v-9.2C80.3,74.1,79.1,72.6,77.2,72.6z M76.9,85.4c0,1.2-0.9,1.8-2,1.3
	c-0.3-0.1-0.6-0.3-0.8-0.6V75.8c0.2-0.2,0.5-0.4,0.7-0.5c1.2-0.6,2.1,0.3,2.1,1.5L76.9,85.4L76.9,85.4z M89.2,84.6
	c0,1.3-0.7,2.1-1.5,2.2c-0.9,0.1-1.7-0.6-1.7-2.2v-3.1h6.3v-4.3c0-1.3-0.5-2.6-1.4-3.5c-0.9-0.8-2.1-1.3-3.4-1.3
	c-1.2,0-2.4,0.4-3.4,1.1c-1,0.8-1.7,2-1.7,3.7v7.5c0,1.5,0.5,2.7,1.2,3.5c0.9,1,2.1,1.5,3.4,1.5c1.5,0.1,3.2-0.6,4.2-1.9
	c0.6-0.8,1-1.9,1-3.1v-0.9h-3.1V84.6z M86,77.2c0-0.9,0.5-2,1.5-2s1.7,1,1.7,2v1.7H86V77.2z"/>
<path class="st0" d="M69.2,16c-26.5,0-48,21.5-48,48s21.5,48,48,48s48-21.5,48-48S95.7,16,69.2,16z M77.6,34h4.3v14.3
	c0,0.9,0.4,0.9,0.6,0.9c0.6,0,1.6-0.7,2.1-1.2V33.9h4.3v18.9h-4.3v-1.7c-0.6,0.5-1.2,1-1.8,1.3C82,52.9,81.2,53,80.5,53
	c-0.8,0-1.6-0.3-2.2-0.9c-0.5-0.6-0.7-1.5-0.7-2.6C77.6,49.5,77.6,34,77.6,34z M64,38.9c0-2.9,2.4-5.3,5.3-5.3s5.3,2.4,5.3,5.3V48
	c0,2.9-2.4,5.3-5.3,5.3S64,50.9,64,48V38.9z M52.9,27.5l2.6,9.4l2.6-9.4h4.9l-5,14.8v10.5h-4.7V42.3l-5.1-14.8
	C48.1,27.5,52.9,27.5,52.9,27.5z M95,94.3c-2.7,2.7-25.8,2.7-25.8,2.7s-23-0.1-25.8-2.7c-2.7-2.7-2.7-15.9-2.7-16.1
	c0-0.1,0-13.3,2.7-16.1c2.7-2.7,25.8-2.7,25.8-2.7s23,0.1,25.8,2.7c2.7,2.7,2.8,15.9,2.8,16.1C97.8,78.3,97.8,91.6,95,94.3z"/>
<path class="st0" d="M69.2,49.9c0.9,0,1.3-0.5,1.4-1.4V38.3c0-0.7-0.7-1.3-1.3-1.3s-1.3,0.5-1.3,1.3v10.1
	C67.9,49.3,68.3,49.8,69.2,49.9z"/>
</svg>
